<svg xmlns="http://www.w3.org/2000/svg" width="593" height="476" viewBox="0 0 593 476">
    <g fill="none">
        <path fill="#000" d="M27.507 452.676c-.7 0-1.337-.191-1.974-.636-.764-.509-1.273-1.272-1.4-2.226-.128-.954.063-1.78.572-2.543.51-.763 1.274-1.272 2.229-1.4.891-.126 1.783.064 2.547.573.764.509 1.273 1.272 1.4 2.226.128.953-.063 1.78-.572 2.543-.51.763-1.274 1.272-2.229 1.399-.191.064-.382.064-.573.064zm0-5.85c-.127 0-.318 0-.446.063-.637.127-1.21.445-1.592 1.018-.382.508-.509 1.208-.382 1.844.128.635.446 1.208 1.02 1.59.509.38 1.209.508 1.846.38.636-.126 1.21-.444 1.591-1.017.383-.508.51-1.208.383-1.844-.128-.636-.446-1.208-1.02-1.59-.445-.254-.89-.444-1.4-.444z"/>
        <ellipse cx="269.657" cy="436.461" fill="#9050A6" rx="3.247" ry="3.243"/>
        <path fill="#000" d="M36.358 190.697c-.51 0-1.02-.063-1.529-.254-2.738-.827-4.33-3.752-3.502-6.55.382-1.335 1.337-2.416 2.547-3.115 1.21-.7 2.675-.763 4.012-.382 1.337.382 2.42 1.336 3.12 2.544.636 1.208.764 2.67.382 4.006-.7 2.289-2.802 3.751-5.03 3.751zm0-9.538c-.7 0-1.401.191-1.974.509-1.02.509-1.72 1.462-2.102 2.543-.7 2.226.574 4.642 2.866 5.342 2.228.7 4.648-.573 5.348-2.862.319-1.08.255-2.225-.318-3.243-.51-1.017-1.465-1.716-2.547-2.098-.446-.127-.891-.19-1.273-.19zM239.476 217.277c-.255 0-.573-.064-.828-.128-.7-.254-1.337-.699-1.655-1.398-.382-.7-.446-1.463-.191-2.162.19-.7.7-1.336 1.4-1.654.7-.381 1.465-.445 2.165-.19 1.529.445 2.356 2.034 1.91 3.56-.254.7-.7 1.336-1.4 1.654-.446.19-.955.318-1.401.318zm0-4.77c-.318 0-.637.064-.892.255-.445.254-.764.636-.955 1.145-.127.508-.127 1.017.128 1.462.254.445.636.763 1.146.954.51.127 1.019.127 1.464-.127.446-.255.764-.636.955-1.145.319-1.017-.254-2.035-1.273-2.353-.191-.127-.382-.19-.573-.19z"/>
        <ellipse cx="191.912" cy="67.275" fill="#9050A6" rx="2.674" ry="2.671"/>
        <ellipse cx="5.667" cy="319.016" fill="#9050A6" rx="5.667" ry="5.659"/>
        <ellipse cx="455.647" cy="21.302" fill="#9050A6" rx="4.011" ry="4.006"/>
        <ellipse cx="588.661" cy="246.717" fill="#9050A6" rx="4.011" ry="4.006"/>
        <path fill="#000" d="M23.814 31.221c-.127 0-.255-.063-.318-.127l-9.488-9.41c-.19-.192-.19-.51 0-.7l9.424-9.411c.19-.19.51-.19.7 0l9.424 9.41c.19.191.19.51 0 .7l-9.424 9.411c-.063.064-.19.127-.318.127zm-8.787-9.92l8.723 8.712 8.723-8.711-8.66-8.712-8.786 8.712zM123.336 376.371c-.128 0-.255-.063-.319-.127l-5.157-5.15c-.064-.064-.128-.191-.128-.318 0-.128.064-.255.128-.318l5.157-5.15c.191-.192.51-.192.7 0l5.158 5.15c.064.063.127.19.127.318 0 .127-.063.254-.127.317l-5.157 5.151c-.128.064-.255.127-.382.127zm-4.458-5.659l4.521 4.515 4.521-4.515-4.52-4.515-4.522 4.515zM353.897 226.37c-.064 0-.19 0-.255-.064l-4.902-3.37c-.191-.127-.255-.445-.128-.636l3.375-4.896c.127-.191.446-.255.637-.127l4.903 3.37c.19.127.254.445.127.636l-3.375 4.896c-.063.127-.19.19-.382.19zm-4.266-3.943l4.139 2.798 2.801-4.133-4.138-2.798-2.802 4.133zM251.383 117.7c-.064 0-.191 0-.255-.064l-6.495-4.451c-.19-.127-.254-.445-.127-.636l4.457-6.486c.128-.19.446-.254.637-.127l6.495 4.451c.127.064.19.19.19.318 0 .127 0 .254-.063.381l-4.457 6.486c-.127.064-.255.127-.382.127zm-5.858-5.024l5.73 3.879 3.885-5.723-5.731-3.879-3.884 5.723zM555.105 66.13h-.063c-.128 0-.255-.127-.319-.19l-5.157-7.758c-.064-.127-.064-.254-.064-.381 0-.128.127-.255.191-.318l7.768-5.15c.128-.065.255-.065.382-.065.128 0 .255.128.319.191l5.157 7.758c.128.19.064.509-.127.636l-7.768 5.15c-.128.064-.255.127-.319.127zm-4.52-8.139l4.648 6.995 7.004-4.642-4.648-6.995-7.005 4.642zM546.891 395.51h-.063c-.128 0-.255-.063-.319-.19l-6.685-8.902c-.064-.127-.128-.254-.064-.382 0-.127.064-.254.191-.318l8.914-6.676c.191-.127.51-.127.637.063l6.686 8.903c.127.19.127.508-.064.635l-8.914 6.677c-.128.127-.191.19-.319.19zm-5.985-9.283l6.113 8.14 8.15-6.105-6.113-8.14-8.15 6.105zM515.182 107.843c-.191 0-.382-.127-.446-.254l-6.24-14.116c-.127-.255 0-.509.255-.636s.51 0 .637.254l6.24 14.117c.127.254 0 .508-.255.635h-.191zM320.214 128.318c-.064 0-.127 0-.191-.063-.255-.127-.382-.382-.255-.636l5.603-14.37c.128-.255.382-.382.637-.255s.382.382.255.636L320.66 128c-.064.255-.255.318-.446.318zM323.016 463.104c-.192 0-.446-.127-.446-.382-.064-.254.127-.508.382-.572l15.027-3.307c.254-.063.51.128.573.382.064.254-.128.509-.382.572l-15.027 3.307h-.127zM264.627 43.875c-.064 0-.191 0-.255-.064-.19-.127-.318-.445-.127-.635l8.277-12.972c.128-.191.446-.318.637-.127.191.127.319.445.128.635l-8.278 12.972c-.064.064-.191.191-.382.191zM417.57 77.767c-.063 0-.19 0-.254-.064-.191-.127-.318-.445-.127-.636l8.277-12.971c.127-.191.446-.318.637-.128.19.128.318.446.127.636l-8.277 12.972c-.064.127-.255.19-.382.19zM136.452 16.024c-.19 0-.382-.127-.445-.318l-5.413-14.434c-.063-.255.064-.509.255-.636.255-.064.51.063.637.254l5.412 14.434c.064.255-.064.51-.255.636-.063.064-.127.064-.19.064zM232.408 419.801c-.127 0-.255-.063-.318-.127l-11.207-10.556c-.19-.19-.19-.508 0-.699.191-.19.51-.19.7 0l11.207 10.555c.191.191.191.51 0 .7-.127.064-.254.127-.382.127zM205.602 311.958c-.064 0-.128 0-.191-.064-.255-.127-.382-.382-.255-.636l6.049-14.18c.127-.254.382-.381.637-.254.254.127.382.381.254.636l-6.049 14.18c-.127.254-.318.318-.445.318zM348.994 393.985c-.254 0-.445-.127-.445-.382l-2.993-15.133c-.064-.255.127-.51.382-.573.255-.063.51.127.573.382l2.993 15.134c.063.254-.128.508-.382.572h-.128zM456.793 409.945c-.127 0-.19-.063-.318-.127-.19-.19-.255-.445-.064-.7l9.551-12.081c.191-.19.446-.254.7-.064.192.191.256.445.065.7l-9.551 12.081c-.128.128-.255.191-.383.191zM538.487 467.491c-.128 0-.255-.063-.383-.19l-9.487-12.146c-.19-.19-.127-.508.064-.699.19-.19.51-.127.7.064l9.488 12.145c.19.19.127.508-.064.7-.127.126-.191.126-.318.126zM300.03 279.21c-.128 0-.319-.063-.383-.19l-9.105-12.4c-.127-.19-.127-.509.127-.636.191-.127.51-.127.637.127l9.105 12.4c.128.19.128.509-.127.636-.064.063-.127.063-.255.063zM39.541 274.123c-.063 0-.127 0-.254-.063-.255-.127-.319-.445-.191-.636l7.386-13.544c.127-.254.445-.318.636-.19.255.126.319.444.191.635l-7.386 13.544c-.063.127-.19.254-.382.254zM49.347 384.892c-.127 0-.191 0-.318-.127l-12.29-9.348c-.19-.19-.254-.445-.063-.7.19-.19.446-.253.7-.063l12.29 9.411c.19.191.254.445.063.7-.064.063-.191.127-.382.127zM5.667 115.665c-.191 0-.446-.128-.446-.382-.063-.254.128-.509.382-.572l15.027-3.434c.255-.063.51.127.573.382.064.254-.127.508-.382.572l-15.027 3.434h-.127zM128.684 119.353c-.127 0-.255-.064-.318-.127l-11.08-10.683c-.19-.19-.19-.509 0-.7.192-.19.51-.19.7 0l11.08 10.683c.191.19.191.509 0 .7-.127.063-.255.127-.382.127zM172.746 227.768c-.127 0-.255-.063-.382-.19l-9.55-12.082c-.192-.19-.128-.508.063-.7.19-.19.51-.126.7.064l9.551 12.082c.191.19.128.509-.064.7-.127.126-.19.126-.318.126zM554.023 296.57c-.127 0-.191-.064-.319-.128l-12.034-9.601c-.19-.191-.254-.445-.063-.7.19-.19.445-.254.7-.063l12.034 9.601c.191.191.255.445.064.7-.064.127-.255.19-.382.19zM575.353 172.193c-.19 0-.318-.063-.382-.254-.127-.254-.063-.509.191-.636l13.308-7.82c.255-.128.51-.065.637.19.127.254.064.509-.191.636l-13.308 7.82c-.064.064-.19.064-.255.064z"/>
        <g>
            <g>
                <path fill="#000" d="M144.815 384.73c-13.298-.064-39.83.254-47.848.254-.318 0-10.18-.064-12.343-.064.763-6.558 1.463-13.18 2.227-19.74-1.21.065-2.354.065-3.563.128.636-14.773 2.608-66.987 2.99-78.385-4.39-5.667-25.196-34.13-30.668-42.217-2.482 40.434-4.9 80.869-7.38 121.366-.955.064-2.482.128-4.327.255.954.828 1.908 1.528 2.8 2.165.763.446 2.417 1.4 5.916 2.483 7.445 2.356 9.99 1.21 13.553 2.738 2.672 1.147 6.108 3.821 8.78 11.144-13.297-.064-39.83.254-47.847.254-.318 0-10.18-.063-12.344-.063.637-5.922-.509-114.235-1.717-167.404 9.225-.7 69.48-5.412 71.134-5.54 3.118 5.094 6.745 11.016 10.626 17.638 21.76 36.741 24.115 46.038 25.133 53.424 0 0 .127.765.19 1.465 1.528 15.792-1.463 34.512-1.463 34.512-.827 6.495-1.781 13.117-2.672 19.74-1.273 8.723-2.545 17.383-3.881 25.852 1.59 1.592 3.117 2.866 4.517 3.757.764.446 2.418 1.4 5.917 2.483 7.445 2.356 9.99 1.21 13.553 2.738 2.609 1.02 6.108 3.694 8.717 11.016z" transform="translate(62.4 36) translate(1.273 19.103)"/>
                <path fill="#52A0FF" d="M136.034 68.388c-.063 1.592-.19 3.375-.318 5.412-.318 4.521-.89 9.997-1.909 16.174-.19 1.273-.445 2.547-.7 3.884-.445 2.229-.827 4.394-1.208 6.368-2.864 14.645-5.154 23.369-12.471 30.118-3.881 3.566-10.053 6.24-22.524 11.398-7.763 3.248-14.316 5.54-18.961 7.005l3.818 38.587c.827 8.15 1.59 16.301 2.417 24.452-3.88.127-22.969 1.4-35.313 2.547-14.443 1.337-27.677 2.42-35.821 3.056-.191 0-1.019.064-1.21.064-1.526-15.537-4.072-42.408-6.362-67.433-1.845-20.121-3.563-39.097-4.39-49.858C.89 97.742.7 95.768.636 94.24c-.063-1.21-.19-2.674-.254-4.393C.19 85.644.255 80.04 1.654 73.673c.318-1.337.637-2.738 1.082-4.139 1.145-3.757 2.609-7.004 6.68-13.563 1.91-3.056 4.327-6.75 7.572-11.589.955-1.4 1.91-2.865 3.054-4.457.191-.319.446-.637.637-.955 3.054-4.458 6.553-9.552 10.562-15.155 1.018-1.401 2.036-2.802 3.054-4.267.19.128.509.255.763.446 2.927 1.656 10.117 5.922 14.253 8.47.509.317.954.572 1.4.827.445.255.763.51 1.018.637-.255.382-.446.764-.7 1.21-1.336 2.355-2.927 4.966-4.518 7.704l-.572.955c-2.736 4.649-5.536 9.424-7.763 13.181-.509.955-1.145 1.91-1.718 2.866-3.245 5.54-7.062 12.098-10.371 17.702-.763 1.273-1.527 2.547-2.227 3.756l1.718 12.417c.509 3.439.954 6.877 1.463 10.316.637 4.648 1.273 9.296 1.973 14.008.763.128 7.253 1.529 14.443 3.057 4.645.955 9.544 2.037 13.425 2.865 3.818.828 6.681 1.465 7.254 1.592 4.645-1.273 9.29-2.483 13.934-3.693 9.48-2.547 18.961-5.094 28.378-7.577.89-3.375 1.718-6.75 2.545-10.252.827-3.375 1.59-6.814 2.354-10.316.382-1.655.7-3.31 1.082-4.966.572-2.802 1.145-5.604 1.718-8.342l.572-2.865c.382-1.974.764-3.948 1.146-5.859v-.063h.19c2.927.063 5.854.127 8.781.254.445 0 .89 0 1.336.064 2.227.064 3.69.127 6.554.191.509.191 2.927.255 3.308.255z" transform="translate(62.4 36) translate(1.273 19.103)"/>
                <g fill="#000">
                    <path d="M21.57 23.433c-.191 0-.319-.064-.382-.255-.127-.255-.064-.51.127-.637l1.782-1.146c.763-.446 1.463-.891 2.1-1.273.89-.574 1.717-1.083 2.48-1.529.446-.254 1.146-.7 1.4-1.464.255-.892-.254-1.783-.254-1.783-.382-.7-1.082-.955-1.654-1.21-.7-.255-1.4-.573-1.591-1.4-.127-.447 0-.829.127-1.147.128-.318.191-.637.128-1.146-.064-.255-.128-.7-.446-1.083-.318-.382-.636-.51-1.082-.636-.445-.128-.954-.255-1.4-.828-.381-.51-.445-.955-.508-1.337 0-.319-.064-.637-.318-1.083-.255-.318-.382-.446-.7-.573-.255-.127-.573-.318-.955-.7-.827-.765-1.081-1.465-1.336-1.974-.127-.382-.254-.573-.382-.7-.954-.638-4.2 1.782-6.044 3.629-3.945 3.884-7.7 8.596-11.135 13.881-.19.255-.382.573-.573.892l-.063.063c-.127.191-.446.255-.636.128-.191-.128-.255-.446-.128-.637.191-.319.382-.637.573-.892C4.136 13.245 7.953 8.47 11.962 4.521c.89-.828 5.28-5.03 7.253-3.757.446.255.573.7.764 1.146.19.51.382 1.02 1.082 1.656.318.318.572.446.763.573.318.191.636.382 1.018.891.445.637.445 1.147.51 1.529 0 .318.063.509.254.827.254.319.572.382.954.51.445.127 1.082.318 1.59.955.446.573.573 1.21.573 1.528.128.764-.063 1.274-.19 1.656-.064.254-.128.382-.064.573.063.318.445.51 1.018.764.7.255 1.59.637 2.163 1.592 0 0 .764 1.21.382 2.547-.318 1.146-1.336 1.72-1.845 2.037-.764.446-1.527.956-2.482 1.529-.636.382-1.336.827-2.1 1.273l-1.781 1.146c-.127-.127-.19-.063-.254-.063z" transform="translate(62.4 36) translate(1.273 19.103) translate(33.722)"/>
                    <path d="M16.925 29.991c-.191 0-.318-.063-.446-.254-.127-.255 0-.51.191-.637.446-.191 1.146-.573 1.973-1.019 3.372-1.656 6.044-2.738 8.271-3.566 2.863-1.146 4.772-1.91 4.772-2.674 0-.573-.827-1.274-1.463-1.528-.891-.446-1.973-.128-2.863.063-.637.128-1.21.382-1.782.7-.254.128-.509.064-.636-.19-.127-.255-.064-.51.19-.637.637-.318 1.273-.573 1.973-.764 1.018-.255 2.29-.573 3.5 0 .7.318 2.036 1.21 2.036 2.42 0 1.464-1.782 2.164-5.345 3.565-2.163.892-4.9 1.91-8.208 3.566-.827.446-1.527.764-1.972.955 0-.063-.064 0-.191 0z" transform="translate(62.4 36) translate(1.273 19.103) translate(33.722)"/>
                    <path d="M19.533 28.208l-2.99 1.274-15.97-9.806c.19-.319.381-.573.572-.892l18.388 9.424z" transform="translate(62.4 36) translate(1.273 19.103) translate(33.722)"/>
                </g>
                <g fill="#000">
                    <path d="M28.568 23.624c-.254 0-.509-.191-.509-.446v-2.93c-.063-1.527-.127-2.992-.254-4.456-.255-2.547-.636-5.03-1.145-7.387 0-.127-.7-3.31-1.782-5.349-.509-.955-1.018-1.528-1.463-1.591-.191 0-1.018.063-1.782.509-.254.127-.382.255-.572.382-.191.191-.446.382-.828.51-.636.19-1.081 0-1.463-.128-.255-.127-.51-.191-.827-.191-.446.064-.7.318-1.082.637-.382.382-.89.891-1.781.891-.382 0-.573-.063-.764-.127-.19-.064-.318-.127-.7-.127-.954-.064-1.527.19-1.909.382-.509.254-.7.636-.89 1.018-.255.446-.51.956-1.21 1.338-.508.254-.826.254-1.145.254-.318 0-.572 0-1.018.255-.318.127-1.145.51-1.4 1.21-.318.828.191 1.783.446 2.356.254.51.509 1.082.827 1.655l.064.191c.127.319.318.637.445 1.02v.063c.51 1.146 1.082 2.42 1.718 3.884.127.255 0 .51-.254.637-.255.127-.51 0-.637-.255-.636-1.464-1.145-2.738-1.654-3.884v-.064c-.19-.382-.318-.7-.445-1.018l-.064-.192c-.255-.573-.51-1.146-.764-1.655-.318-.7-.954-1.91-.509-3.184.382-1.019 1.464-1.528 1.846-1.72.7-.317 1.081-.317 1.463-.317.255 0 .445 0 .764-.192.445-.254.636-.573.827-.955.254-.445.509-1.018 1.272-1.4.636-.383 1.464-.51 2.418-.51.51 0 .764.127.954.191.128.064.191.064.382.064.51 0 .764-.319 1.145-.637.382-.382.828-.828 1.655-.891.572-.064.954.127 1.272.254.318.128.51.191.827.128.191-.064.255-.128.446-.255.19-.127.382-.318.7-.51.89-.509 1.909-.636 2.29-.636.827 0 1.527.7 2.29 2.101 1.146 2.165 1.846 5.412 1.91 5.604.509 2.42.954 4.966 1.145 7.513.127 1.465.255 2.993.255 4.521 0 .955.063 1.91 0 2.93-.064.318-.255.509-.51.509z" transform="translate(62.4 36) translate(1.273 19.103) translate(106.893 45.21)"/>
                    <path d="M9.29 23.178c-.128 0-.255-.064-.319-.127l-1.018-1.083c-.254-.318-.572-.637-.89-1.019-1.718-2.037-3.945-4.52-5.281-6.75C.572 12.163.255 10.762.827 9.743c.51-.764 1.527-1.146 2.354-1.082.637.064 1.273.318 3.309 2.993l.509.636c.254.319.445.637.636.828l.191.255c.064.064.127.191.127.318 0 .255-.19.51-.509.51-.127 0-.254-.064-.318-.128l-.063-.063-.191-.319c-.191-.254-.382-.51-.637-.827l-.509-.637c-1.781-2.229-2.354-2.61-2.672-2.61-.509-.065-1.145.19-1.463.636-.255.446-.318 1.4.954 3.438 1.273 2.102 3.436 4.585 5.154 6.623.318.382.636.7.89.955l1.019 1.082c.19.191.19.51 0 .7-.064.064-.191.128-.318.128z" transform="translate(62.4 36) translate(1.273 19.103) translate(106.893 45.21)"/>
                    <path d="M28.568 23.114l-9.162-.19-10.371-.192v-.063h.19c-.19-.191-.38-.446-.635-.7 4.263-.383 15.525-1.338 19.915-1.72.063.955.063 1.91.063 2.865z" transform="translate(62.4 36) translate(1.273 19.103) translate(106.893 45.21)"/>
                </g>
                <g fill="#000">
                    <path d="M32.513 10.315c-.063.064-.19.064-.254.128-.064 0-.064.064-.127.064l-.955.382-1.336.573c-.382 1.337-.827 2.738-1.209 4.075-.382 1.273-.7 2.547-1.082 3.757-.381 0-2.036-.191-2.354-.255.51-1.655.064-3.375-1.145-4.457-1.59-1.401-3.945-.892-5.217-.128-1.846 1.147-2.61 3.375-2.355 5.286.064.318.128.636.191.891.637 1.974 2.29 2.993 2.545 3.12-.063.127-.19.191-.254.318-1.145 1.338-2.418 2.675-3.69 4.012-1.718 1.783-3.373 3.502-5.027 5.158-.954-.128-1.909-.319-2.863-.446l-1.336-.191c-1.718-.255-3.5-.573-5.218-.828-.127 0-.254-.063-.382-.063-.19-4.203-.127-7.833.064-10.953.19-3.12.573-5.73.954-7.704.128-.892.319-1.72.573-2.547.255-.956.636-1.847 1.209-2.866C6.554 1.974 12.916.51 13.68.318 13.934.255 15.27 0 17.243 0c2.99 0 7.317.637 11.007 3.693 1.082.892 3.182 2.675 4.009 5.731.127.255.19.637.254.891z" transform="translate(62.4 36) translate(1.273 19.103) translate(37.54 79.595)"/>
                    <path d="M20.87 25.343h-.128c-.445-.127-.89-.255-1.272-.446-.446-.19-.955-.51-1.336-.764-.191-.127-.255-.446-.128-.637.128-.19.446-.254.637-.127.381.255.763.51 1.209.7.381.191.763.319 1.145.383.254.063.382.318.318.573-.064.19-.254.318-.445.318z" transform="translate(62.4 36) translate(1.273 19.103) translate(37.54 79.595)"/>
                    <path d="M19.47 41.07c-.255 0-.51-.19-.51-.508v-4.904c0-.254.192-.445.51-.445h.382c2.1.063 6.044-.255 8.971-3.057 2.545-2.483 2.927-5.73 3.436-9.806l.19-1.719c.255-3.311 0-6.75-.763-10.124v-.064c0-.128-.063-.255-.063-.446-.064-.19-.191-.382-.319-.637 0 0-.381-.7-.763-1.273-.636-.892-2.036-2.484-2.99-3.184-.637-.51-6.363-4.903-13.426-3.375-5.408 1.146-8.271 5.03-9.735 8.087-.19.318-.318.637-.382.892-.509 1.21-.763 2.164-.89 2.801-.382 1.91-.764 4.394-1.018 7.323-.318 3.12-.51 6.813-.637 10.952v.064l-.127 4.84c0 .254-.254.445-.509.445-.254 0-.445-.255-.445-.51l.127-4.902v-.064c.127-4.14.382-7.832.636-10.952.255-2.993.637-5.477 1.082-7.45.127-.637.445-1.72.954-2.993.128-.319.255-.637.446-.955 1.527-3.248 4.645-7.45 10.37-8.66C21.507-1.146 27.55 3.502 28.25 4.012c.955.764 2.482 2.42 3.182 3.438.445.637.827 1.337.827 1.4.127.32.254.51.382.701v.064c.063.191.063.318.127.51v.063c.763 3.439 1.018 6.94.763 10.38-.063.572-.127 1.21-.19 1.782-.51 4.266-.955 7.705-3.754 10.38-3.055 2.992-7.19 3.374-9.48 3.374v4.394c-.192.382-.383.573-.637.573z" transform="translate(62.4 36) translate(1.273 19.103) translate(37.54 79.595)"/>
                    <path d="M19.788 35.276c0 .255-.064.51-.064.765-.127 1.4-.19 2.738-.254 4.011-.636-.7-1.21-1.337-1.845-1.974-1.21-1.337-2.482-2.738-3.69-4.075 1.145.51 2.608.955 4.326 1.146.509.064 1.018.127 1.527.127z" transform="translate(62.4 36) translate(1.273 19.103) translate(37.54 79.595)"/>
                </g>
            </g>
            <g fill="#000">
                <path d="M141.952 157.025c-.7 0-1.464-.382-1.91-.956-.699-.955-.444-2.165.128-3.82.318-.828.7-1.783 1.21-2.993l.572-1.337c.318-.764.636-1.592.954-2.42-1.718 2.102-3.054 3.885-4.072 5.349-.064.064-.7.955-1.59 1.974-2.546 2.865-3.564 3.12-4.073 3.056-.954-.127-1.59-.827-1.909-1.464-.254-.51-.381-1.146-.254-1.91.254-1.401 1.209-2.866 1.781-3.694.637-.955 1.21-1.528 1.273-1.591 1.273-1.401 2.545-2.93 3.563-4.203-.509.446-1.018 1.019-1.654 1.655-1.146 1.147-2.164 2.038-2.8 2.675-5.217 4.84-6.363 4.967-7.19 4.648-.954-.318-1.527-1.337-1.654-2.228-.19-1.465 1.082-2.739 2.863-4.458.446-.445.827-.764.827-.764 1.21-1.082 3.373-3.056 6.363-5.858-5.663 2.93-9.798 4.967-10.435 5.158-.89.254-1.527-.064-1.59-.064-.191-.064-.319-.191-.382-.255-.255-.19-.51-.636-.7-1.082-.064-.255-.19-.573-.19-.955.063-2.038 2.862-3.311 4.008-3.885 6.617-3.12 13.616-6.303 20.742-9.615l.573-.254c.381-.191.7-.319 1.081-.51l3.309-1.528c.254-.127.509 0 .636.255.127.254 0 .51-.254.637l-3.309 1.528c-.382.19-.7.318-1.082.51l-.572.254c-7.127 3.247-14.125 6.495-20.743 9.551-.954.446-3.436 1.592-3.5 3.057 0 .19.064.382.128.573.127.318.318.573.445.7 0 0 .064.064.191.128 0 0 .382.19.955 0 .636-.191 5.472-2.611 13.361-6.75.191-.127.446-.064.637.127.127.191.127.446-.064.637-4.39 4.139-7.38 6.94-8.971 8.278 0 0-.318.255-.764.7-1.59 1.592-2.672 2.675-2.609 3.694.064.509.446 1.21 1.018 1.4.446.128 1.528-.127 6.236-4.457.445-.446 1.336-1.21 2.8-2.61 1.463-1.401 2.481-2.42 3.18-3.12 1.655-1.656 1.782-1.72 2.164-1.402.127.064.191.255.191.382.064.765-3.627 5.54-6.045 8.087 0 0-.509.573-1.145 1.465-.509.764-1.463 2.101-1.654 3.311-.064.51-.064.955.127 1.273.191.383.7.892 1.21.956.063 0 .826 0 3.244-2.738.89-1.02 1.59-1.91 1.59-1.91 1.337-1.911 3.373-4.522 5.982-7.705.127-.192.381-.255.636-.128.19.128.318.382.19.573-.7 1.847-1.399 3.566-2.035 5.222l-.573 1.337c-.509 1.21-.89 2.165-1.145 2.993-.573 1.655-.636 2.42-.255 2.929.255.382.7.573 1.146.573.572 0 1.209-.51 1.781-1.528.255-.382.446-.828.636-1.147l.128-.318c.19-.318.318-.637.509-.955 0 0 0-.064.063-.064.891-1.783 1.845-3.566 2.673-5.349.445-.955.954-1.91 1.4-2.865.063-.127.19-.255.381-.255 1.718-.127 3.436-.51 5.027-1.082 2.354-.828 4.517-2.101 6.426-3.82 1.145-1.02 2.227-2.166 3.181-3.44.128-.19.446-.254.637-.063.19.127.254.446.063.637-.954 1.337-2.1 2.547-3.308 3.566-2.036 1.783-4.263 3.12-6.745 3.948-1.59.573-3.308.955-5.026 1.146-.446.891-.827 1.783-1.273 2.61l-2.672 5.35-.446-.128.446.19c-.191.32-.318.638-.51 1.02l-.126.318c-.191.382-.446.828-.7 1.274-.891 1.273-1.718 1.91-2.736 1.974.063 0 .063 0 0 0z" transform="translate(62.4 36) translate(296.502 69.407)"/>
                <g>
                    <path d="M108.548 111.687c1.018-1.464 2.8-3.82 5.98-7.704-.763 1.974-1.463 3.757-2.036 5.221-.763 1.847-1.336 3.248-1.717 4.33-1.273 0-2.546.064-3.818.064.89-1.02 1.59-1.91 1.59-1.91zM118.537 113.343c-.7 0-1.463 0-2.163.064h-.7s0-.064.063-.064l2.673-5.349c0 1.783.063 3.566.127 5.349z" transform="translate(62.4 36) translate(296.502 69.407) translate(29.905 38.842)"/>
                    <path d="M134.38 18.466c-14.252-9.551-27.169-12.608-30.795-13.372-2.8-.573-6.49-1.4-10.88-1.91V.574c-4.264.126-8.717.19-13.171.19-4.581 0-9.099-.064-13.49-.19v4.902c-1.145.382-2.29.764-3.499 1.21-4.517 1.72-11.643 5.094-21.442 13.754C28.378 31.71 18.579 45.4 15.016 50.559c-2.8-5.731-5.6-11.59-8.399-17.575-2.1-4.52-4.136-8.915-6.108-13.372l1.082 28.654c.063 1.91 1.081 28.081 1.145 29.992.763.891 1.909 2.037 3.563 2.992 0 0 1.209.892 2.609 1.274 11.453 2.929 26.278-13.308 32.577-20.249 2.1-2.292 3.754-4.33 4.835-5.795-1.145 8.215-2.29 16.493-3.435 24.834-1.591 11.334-3.245 22.541-4.963 33.62 21.187-.445 42.312-.827 63.5-1.273.19-1.273 1.145-2.674 1.717-3.502.573-.828 1.082-1.4 1.21-1.464 3.053-3.248 6.044-7.641 5.916-7.769-.127-.063-1.208 1.146-4.708 4.521-1.59 1.528-2.418 2.293-2.8 2.675-5.09 4.712-6.108 4.775-6.68 4.52-.764-.254-1.273-1.146-1.336-1.782-.128-1.21 1.018-2.356 2.735-4.076.446-.445.764-.7.764-.7 1.273-1.146 3.945-3.566 8.971-8.278-7.317 3.82-12.725 6.559-13.425 6.75-.763.19-1.272-.064-1.272-.064-.128-.064-.255-.127-.255-.191-.19-.191-.445-.51-.573-.891 0 0-.127-.383-.127-.765.064-1.719 2.673-2.992 3.754-3.438 3.245-1.528 10.69-4.967 20.743-9.551.572.382 1.145.827 1.717 1.21 1.146.827 2.291 1.655 3.5 2.42 3.436 2.419 6.872 4.711 10.244 6.876 2.418 1.592 4.836 3.12 7.19 4.585 5.408-6.432 13.043-16.683 19.597-30.82 3.881-8.34 5.79-12.607 5.79-17.765-.127-17.83-19.28-30.692-29.714-37.696zm-5.663 51.705c-3.754 4.457-7.508 8.66-11.198 12.671l-.573-17.574c-.19-6.686-.445-14.2-.636-20.886 3.818 1.91 7.699 3.884 11.58 5.922 4.009 2.101 7.954 4.139 11.898 6.24-3.5 4.457-7.19 8.978-11.07 13.627z" transform="translate(62.4 36) translate(296.502 69.407) translate(29.905 38.842)"/>
                </g>
                <g>
                    <path d="M21.697 9.615c.636 4.903 1.272 9.488 1.781 13.69-6.49-.063-14.316-.063-23.35 0C2.8 14.773 6.49 11.78 9.543 10.634c4.263-1.592 7.254-.064 12.153-1.019zM59.873 23.433c-2.29.063-5.472.063-9.29.063l-2.8-3.565v3.565h-.19c-7.953 0-13.743-.127-16.034-.19h-4.39c-.064-4.776-.191-9.934-.318-15.601 2.545-1.401 5.344-3.693 8.271-7.387h22.142c.891 7.705 1.782 15.41 2.609 23.115zM129.544 19.93l2.8 3.566c3.5 0 6.49-.063 8.59-.063-.827-7.705-1.718-15.346-2.545-23.05-7.445.063-14.825.063-22.27.126-4.835 6.177-9.417 8.278-12.789 9.042-5.28 1.21-8.271-.573-12.725 1.083-2.99 1.146-6.745 4.139-9.417 12.671 13.234-.063 23.86 0 31.432.064 2.29 0 8.08.191 16.034.191h.827v-3.63h.063z" transform="translate(62.4 36) translate(296.502 69.407) translate(13.362 315.195)"/>
                </g>
                <g>
                    <path d="M15.525 39.988c-.255 0-.445-.19-.445-.382l-.382-1.91c-3.245.255-6.172-.382-8.526-1.974C.255 31.838.255 23.942.255 21.332c0-1.784.254-6.368 2.417-10.698.064-.064.064-.127.128-.191C4.327 7.386 6.554 5.03 9.417 3.566c.763-.382 7.317-3.693 13.361-.828 4.2 2.038 6.872 6.368 8.717 14.136l.064.318c.064.255-.064.51-.318.574-.255.063-.51-.064-.573-.319l-.063-.382c-1.782-7.45-4.263-11.653-8.208-13.5-5.6-2.674-11.835.447-12.535.765-2.672 1.4-4.772 3.63-6.235 6.495-.064.064-.064.127-.064.127-2.036 4.14-2.29 8.596-2.29 10.316 0 2.483 0 9.933 5.471 13.563 2.291 1.464 5.154 2.101 8.336 1.783.254 0 .445.127.509.382.127.764.318 1.592.445 2.356.064.254-.127.51-.382.573-.063.063-.063.063-.127.063z" transform="translate(62.4 36) translate(296.502 69.407) translate(84.624)"/>
                    <path d="M28.823 28.145h-.318c-.255 0-.446-.255-.446-.51 0-.254.255-.445.51-.445.636 0 1.208-.064 1.781-.255 1.972-.764 4.072-3.375 3.054-6.368-.445-1.273-1.336-2.228-2.545-2.801-1.209-.574-2.545-.637-3.818-.191-.7.254-1.272.636-1.336.7-.954.764-1.336 1.783-1.527 2.356-.063.255-.318.382-.572.318-.255-.063-.382-.318-.319-.573.191-.636.637-1.91 1.846-2.865.445-.446 1.527-.828 1.59-.892 1.464-.509 3.118-.445 4.518.255s2.481 1.91 3.054 3.375c1.209 3.502-1.273 6.622-3.563 7.514-.636.318-1.273.382-1.909.382z" transform="translate(62.4 36) translate(296.502 69.407) translate(84.624)"/>
                    <g>
                        <path d="M29.777 17.638c-.381-.254-2.99-1.655-5.535-.7-1.209.446-2.036 1.337-2.036 1.337-.7.764-.955 1.592-1.082 2.038l-4.963-7.45c-1.781-.51-3.117-1.21-3.945-1.656-2.8-1.592-5.28-4.139-5.28-4.139-.573.637-1.4 1.274-2.355 1.974-1.654 1.082-3.245 1.528-4.326 1.783C.636 9.55 2.163 5.158 6.554 2.42 11.389-.637 17.307-.191 21.57 2.1c5.471 2.866 8.716 9.042 8.207 15.537zM30.732 24.961L30.986 31.647 28.568 27.062z" transform="translate(62.4 36) translate(296.502 69.407) translate(84.624) translate(2.545)"/>
                    </g>
                    <path d="M34.804 39.988c-.255 0-.445-.19-.445-.382-.446-2.674-.828-5.348-1.273-8.023l-.19-1.146c-.192-1.464-.446-2.929-.637-4.394-.064-.254.127-.509.382-.509.254-.064.509.127.509.382.19 1.465.445 2.93.636 4.394l.19 1.146c.383 2.674.828 5.349 1.273 8.023.064.255-.127.51-.381.573l-.064-.064z" transform="translate(62.4 36) translate(296.502 69.407) translate(84.624)"/>
                </g>
                <g>
                    <path d="M84.242 164.602c-.254 0-.445-.191-.445-.382-1.591-10.698-3.309-22.032-5.09-33.685l-.382-2.547c-2.736-17.638-5.6-35.53-8.59-53.233l-.445-2.738c-.191-1.018-.318-2.037-.51-2.992-2.29-13.563-4.644-27.254-7.253-42.026-.063-.255.128-.51.382-.574.255-.063.509.128.573.383 2.608 14.709 4.963 28.463 7.253 42.026.191 1.018.318 2.037.51 2.992l.445 2.738c2.926 17.702 5.853 35.595 8.59 53.233l.38 2.547c1.782 11.462 3.5 22.669 5.027 33.303l9.926-.064h2.927c3.881 0 7.699-.063 11.58-.063l5.918-.064L103.139.7c0-.254.191-.509.446-.509.254 0 .509.191.509.446l11.962 163.265c0 .127-.064.254-.128.382-.063.127-.19.127-.318.127l-6.426.064c-3.881 0-7.699.063-11.58.063h-2.927l-10.435.064z" transform="translate(62.4 36) translate(296.502 69.407) translate(42.63 151.548)"/>
                    <path d="M29.905 164.411H.7c-.127 0-.255-.064-.382-.191-.063-.127-.127-.255-.127-.382L32.386 1.146c.064-.255.318-.446.573-.382.254.064.445.318.382.573L1.209 163.456h28.25l.191-.637 24.242-75.774 11.644-36.423c.063-.254.318-.382.572-.318.255.064.382.318.319.573L54.783 87.3l-.255.764-24.305 75.965c.063.255-.064.382-.318.382z" transform="translate(62.4 36) translate(296.502 69.407) translate(42.63 151.548)"/>
                    <g>
                        <g transform="translate(62.4 36) translate(296.502 69.407) translate(42.63 151.548) translate(1.909) translate(30.54)">
                            <ellipse cx="2.1" cy="1.656" rx="1.527" ry="1.528"/>
                            <ellipse cx="18.897" cy="1.656" rx="1.527" ry="1.528"/>
                            <ellipse cx="35.695" cy="1.656" rx="1.527" ry="1.528"/>
                            <ellipse cx="52.556" cy="1.656" rx="1.527" ry="1.528"/>
                            <path d="M70.88 1.656c0 .891-.7 1.528-1.527 1.528h-.19c.254-.446.509-.828.7-1.21.19-.446.445-.828.636-1.274 0 0 0-.063.063-.063l.064.063c.127.255.254.637.254.956z"/>
                            <ellipse cx="10.498" cy="9.488" rx="1.527" ry="1.528"/>
                            <ellipse cx="27.296" cy="9.488" rx="1.527" ry="1.528"/>
                            <ellipse cx="44.157" cy="9.488" rx="1.527" ry="1.528"/>
                            <ellipse cx="60.955" cy="9.488" rx="1.527" ry="1.528"/>
                            <ellipse cx="2.1" cy="18.53" rx="1.527" ry="1.528"/>
                            <ellipse cx="18.897" cy="18.53" rx="1.527" ry="1.528"/>
                            <ellipse cx="35.695" cy="18.53" rx="1.527" ry="1.528"/>
                            <ellipse cx="52.556" cy="18.53" rx="1.527" ry="1.528"/>
                            <ellipse cx="69.353" cy="18.53" rx="1.527" ry="1.528"/>
                            <ellipse cx="10.498" cy="26.298" rx="1.527" ry="1.528"/>
                            <ellipse cx="27.296" cy="26.298" rx="1.527" ry="1.528"/>
                            <ellipse cx="44.157" cy="26.298" rx="1.527" ry="1.528"/>
                            <ellipse cx="60.955" cy="26.298" rx="1.527" ry="1.528"/>
                        </g>
                        <g transform="translate(62.4 36) translate(296.502 69.407) translate(42.63 151.548) translate(1.909) translate(22.27 34.385)">
                            <ellipse cx="10.371" cy="1.592" rx="1.527" ry="1.528"/>
                            <ellipse cx="27.169" cy="1.592" rx="1.527" ry="1.528"/>
                            <ellipse cx="43.966" cy="1.592" rx="1.527" ry="1.528"/>
                            <ellipse cx="60.827" cy="1.592" rx="1.527" ry="1.528"/>
                            <ellipse cx="77.625" cy="1.592" rx="1.527" ry="1.528"/>
                            <ellipse cx="1.972" cy="9.424" rx="1.527" ry="1.528"/>
                            <ellipse cx="18.77" cy="9.424" rx="1.527" ry="1.528"/>
                            <ellipse cx="35.567" cy="9.424" rx="1.527" ry="1.528"/>
                            <ellipse cx="52.429" cy="9.424" rx="1.527" ry="1.528"/>
                            <ellipse cx="69.226" cy="9.424" rx="1.527" ry="1.528"/>
                            <ellipse cx="10.371" cy="18.466" rx="1.527" ry="1.528"/>
                            <ellipse cx="27.169" cy="18.466" rx="1.527" ry="1.528"/>
                            <ellipse cx="43.966" cy="18.466" rx="1.527" ry="1.528"/>
                            <ellipse cx="60.827" cy="18.466" rx="1.527" ry="1.528"/>
                            <ellipse cx="77.625" cy="18.466" rx="1.527" ry="1.528"/>
                            <ellipse cx="1.972" cy="26.234" rx="1.527" ry="1.528"/>
                            <ellipse cx="18.77" cy="26.234" rx="1.527" ry="1.528"/>
                            <ellipse cx="35.567" cy="26.234" rx="1.527" ry="1.528"/>
                            <ellipse cx="52.429" cy="26.234" rx="1.527" ry="1.528"/>
                            <ellipse cx="69.226" cy="26.234" rx="1.527" ry="1.528"/>
                        </g>
                        <g transform="translate(62.4 36) translate(296.502 69.407) translate(42.63 151.548) translate(1.909) translate(15.27 68.77)">
                            <path d="M3.627 1.528c0 .828-.7 1.528-1.527 1.528h-.318L2.354 0c.764.191 1.273.828 1.273 1.528z"/>
                            <ellipse cx="18.897" cy="1.528" rx="1.527" ry="1.528"/>
                            <ellipse cx="35.758" cy="1.528" rx="1.527" ry="1.528"/>
                            <path d="M54.083 1.528c0 .828-.7 1.528-1.527 1.528-.191-1.018-.318-2.037-.51-2.992.128-.064.319-.064.51-.064.827 0 1.527.7 1.527 1.528z"/>
                            <ellipse cx="69.353" cy="1.528" rx="1.527" ry="1.528"/>
                            <ellipse cx="86.151" cy="1.528" rx="1.527" ry="1.528"/>
                            <ellipse cx="10.498" cy="9.36" rx="1.527" ry="1.528"/>
                            <ellipse cx="27.296" cy="9.36" rx="1.527" ry="1.528"/>
                            <ellipse cx="60.955" cy="9.36" rx="1.527" ry="1.528"/>
                            <ellipse cx="77.752" cy="9.36" rx="1.527" ry="1.528"/>
                            <ellipse cx="2.1" cy="18.402" rx="1.527" ry="1.528"/>
                            <ellipse cx="18.897" cy="18.402" rx="1.527" ry="1.528"/>
                            <ellipse cx="35.758" cy="18.402" rx="1.527" ry="1.528"/>
                            <ellipse cx="69.353" cy="18.402" rx="1.527" ry="1.528"/>
                            <ellipse cx="86.151" cy="18.402" rx="1.527" ry="1.528"/>
                            <ellipse cx="10.498" cy="26.171" rx="1.527" ry="1.528"/>
                            <ellipse cx="27.296" cy="26.171" rx="1.527" ry="1.528"/>
                            <ellipse cx="60.955" cy="26.171" rx="1.527" ry="1.528"/>
                            <ellipse cx="77.752" cy="26.171" rx="1.527" ry="1.528"/>
                            <path d="M93.404 27.19c-.254-.255-.381-.637-.381-1.02 0-.318.063-.572.254-.827.064.637.064 1.21.127 1.847z"/>
                        </g>
                        <g transform="translate(62.4 36) translate(296.502 69.407) translate(42.63 151.548) translate(1.909) translate(6.999 102.518)">
                            <ellipse cx="10.371" cy="2.101" rx="1.527" ry="1.528"/>
                            <ellipse cx="27.169" cy="2.101" rx="1.527" ry="1.528"/>
                            <ellipse cx="77.625" cy="2.101" rx="1.527" ry="1.528"/>
                            <ellipse cx="94.422" cy="2.101" rx="1.527" ry="1.528"/>
                            <path d="M3.5 9.933c0 .828-.7 1.529-1.528 1.529h-.19l.572-3.057C2.99 8.596 3.5 9.17 3.5 9.933z"/>
                            <ellipse cx="18.77" cy="9.933" rx="1.527" ry="1.528"/>
                            <ellipse cx="35.567" cy="9.933" rx="1.527" ry="1.528"/>
                            <ellipse cx="69.226" cy="9.933" rx="1.527" ry="1.528"/>
                            <ellipse cx="86.024" cy="9.933" rx="1.527" ry="1.528"/>
                            <path d="M103.012 11.462h-.127c-.827 0-1.527-.7-1.527-1.529 0-.827.636-1.528 1.463-1.528 0 .955.127 2.038.191 3.057z"/>
                            <ellipse cx="10.371" cy="18.975" rx="1.527" ry="1.528"/>
                            <ellipse cx="27.169" cy="18.975" rx="1.527" ry="1.528"/>
                            <ellipse cx="77.625" cy="18.975" rx="1.527" ry="1.528"/>
                            <ellipse cx="94.422" cy="18.975" rx="1.527" ry="1.528"/>
                            <ellipse cx="1.972" cy="26.744" rx="1.527" ry="1.528"/>
                            <ellipse cx="18.77" cy="26.744" rx="1.527" ry="1.528"/>
                            <path d="M70.753 26.744c0 .446-.19.891-.509 1.146-.127-.828-.254-1.72-.382-2.547.51.255.891.764.891 1.4z"/>
                            <ellipse cx="86.024" cy="26.744" rx="1.527" ry="1.528"/>
                            <ellipse cx="102.885" cy="26.744" rx="1.527" ry="1.528"/>
                        </g>
                        <g transform="translate(62.4 36) translate(296.502 69.407) translate(42.63 151.548) translate(1.909) translate(0 136.903)">
                            <ellipse cx="18.452" cy="2.038" rx="1.527" ry="1.528"/>
                            <path d="M36.395.955l-.828 2.675h-.254c-.827 0-1.527-.7-1.527-1.529 0-.827.7-1.528 1.527-1.528.382-.064.763.064 1.082.382z"/>
                            <ellipse cx="85.705" cy="2.038" rx="1.527" ry="1.528"/>
                            <ellipse cx="102.567" cy="2.038" rx="1.527" ry="1.528"/>
                            <ellipse cx="10.053" cy="9.87" rx="1.527" ry="1.528"/>
                            <ellipse cx="26.851" cy="9.87" rx="1.527" ry="1.528"/>
                            <ellipse cx="94.168" cy="9.87" rx="1.527" ry="1.528"/>
                            <ellipse cx="110.965" cy="9.87" rx="1.527" ry="1.528"/>
                            <ellipse cx="1.654" cy="18.912" rx="1.527" ry="1.528"/>
                            <ellipse cx="18.452" cy="18.912" rx="1.527" ry="1.528"/>
                            <ellipse cx="85.705" cy="18.912" rx="1.527" ry="1.528"/>
                            <ellipse cx="102.567" cy="18.912" rx="1.527" ry="1.528"/>
                            <path d="M11.644 26.68c0 .128 0 .255-.064.382H8.59c0-.127-.064-.254-.064-.382 0-.828.7-1.528 1.527-1.528.89 0 1.59.7 1.59 1.528zM28.314 26.107l-.318.955h-2.609c0-.127-.063-.254-.063-.382 0-.828.7-1.528 1.527-1.528.7 0 1.208.382 1.463.955zM95.695 26.68c0 .191 0 .319-.064.51h-2.927c-.063-.128-.063-.319-.063-.51 0-.828.7-1.528 1.527-1.528s1.527.7 1.527 1.528zM112.492 26.68c0 .128 0 .255-.063.382h-2.99c-.064-.127-.064-.254-.064-.382 0-.828.7-1.528 1.527-1.528.89 0 1.59.7 1.59 1.528z"/>
                        </g>
                    </g>
                </g>
                <path d="M6.172 53.17c-.191 0-.446 0-.636-.064-.828-.191-1.528-.7-2.164-1.529-.572-.764-1.081-1.782-1.527-2.801l-.063-.128C.572 46.101 0 43.554.064 41.198c.063-3.375 1.463-6.877 3.817-9.933 2.036-2.547 4.709-4.649 7.572-5.795.382-.19.763-.318 1.209-.445 2.545-.828 5.472-.637 10.753-.255 2.29.127 4.008.382 5.09 1.146.382.255.7.637.89 1.019.319.764.446 1.91-.19 2.674 1.209.382 2.036 1.21 2.29 2.229.191.891-.127 1.847-.763 2.547-.446.51-1.082.764-1.845.891-.7.064-1.464 0-2.418-.063-.636-.064-1.336-.128-2.164-.128-2.29-.063-4.58.128-6.426.319 2.163.318 4.39.764 6.617 1.21 2.036.445 3.754.827 4.836 1.464 0 0 .064 0 .064.064.572.382.954.828 1.145 1.4.318.892 0 2.038-.7 2.739-.064.063-.127.127-.19.127 0 0-.064 0-.064.064-.891.637-2.037.446-3.69.19-1.719-.254-3.373-.509-4.836-.7-1.4-.19-2.61-.382-3.564-.509 1.973.764 3.754 1.273 5.218 1.656 2.672.7 4.39 1.21 4.835 2.61.064.191.319.955-.063 1.656-.446.764-1.464.955-1.845 1.019-2.99.445-10.69-2.102-12.853-2.866-.19 1.592-.764 3.057-1.654 4.267-.255.509-2.418 3.374-4.963 3.374zm11.07-27.827c-1.717 0-3.053.127-4.262.51-.382.127-.764.254-1.145.445-2.736 1.146-5.281 3.057-7.19 5.54-2.29 2.865-3.563 6.176-3.627 9.36-.064 2.229.509 4.585 1.59 7.005l.064.127c.446 1.019.891 1.974 1.464 2.674.509.7 1.018 1.083 1.654 1.21 2.227.446 4.518-2.674 4.772-3.056.89-1.274 1.4-2.802 1.527-4.394 0-.127.064-.255.191-.382.127-.064.255-.127.445-.064.128.064 9.735 3.503 12.917 2.993.254-.064.89-.127 1.145-.573.19-.382 0-.891 0-.891-.318-.956-1.972-1.401-4.2-1.974-1.654-.446-3.69-1.02-5.917-1.91-.636-.255-1.272-.51-1.654-.701-.19-.064-.318-.127-.445-.191l-.128-.064c-.19-.127-.318-.318-.254-.573.063-.19.254-.382.509-.382l.7.064c.509.063 1.4.127 2.418.254.954.128 2.226.319 3.626.574 1.464.254 3.118.509 4.836.7 1.527.191 2.418.318 2.99 0l.064-.064c.064 0 .064-.063.127-.063.446-.446.637-1.147.446-1.783-.128-.382-.382-.637-.764-.892 0 0-.063 0-.063-.063-.955-.574-2.61-.956-4.454-1.338-2.864-.573-5.663-1.082-8.463-1.464-.382-.064-.763-.128-1.145-.128-.255 0-.382-.19-.445-.445 0-.255.127-.446.381-.51l1.146-.19c2.1-.383 5.28-.765 8.59-.637.826 0 1.526.063 2.163.127.954.064 1.654.127 2.227.064.572-.064.954-.255 1.272-.573.445-.446.636-1.147.51-1.656-.192-.828-1.019-1.465-2.164-1.656-.128 0-.255-.063-.382-.063-.064 0-.064 0-.127-.064-.637.127-1.59.064-3.182.064h-.7c-1.4-.064-2.1-.064-2.481-.064-2.1-.127-4.327-.064-6.68.318-.255.064-.51-.127-.51-.382-.063-.254.127-.51.382-.51 2.418-.317 4.708-.445 6.872-.317.318 0 1.081.063 2.417.063h.7c2.1.064 3.054.064 3.5-.19.063-.064.127-.064.19-.128.319-.382.383-1.146.064-1.72-.127-.254-.318-.445-.572-.636-.955-.637-2.736-.828-4.581-.955-2.736-.319-4.709-.446-6.363-.446z" transform="translate(62.4 36) translate(296.502 69.407)"/>
            </g>
            <g fill="#000">
                <path d="M379.98 107.74c-.19 0-.382-.128-.445-.319-4.263-13.5-10.244-26.362-17.689-38.142-7.571-11.907-23.287-36.677-44.157-49.603-.254-.128-.318-.446-.127-.637.127-.255.445-.318.636-.127 21.06 12.99 36.84 37.887 44.412 49.858 7.508 11.844 13.489 24.77 17.815 38.333.064.254-.063.51-.318.573 0 .064-.063.064-.127.064zM269.015 135.948c-9.226 0-18.707-2.42-26.914-6.877-9.417-5.094-16.416-12.417-20.297-21.14-4.009-8.979-3.945-16.365-3.5-19.931 1.527-13.245 8.335-29.482 18.325-43.363 14.888-20.822 33.85-33.239 51.983-34.194 3.817-.191 7.635.127 11.453.891 1.972.382 4.008.955 6.044 1.656 1.782.637 3.563 1.337 5.345 2.165.254.127.318.382.254.637-.127.254-.381.318-.636.254-1.718-.827-3.5-1.528-5.28-2.101-1.973-.7-3.946-1.274-5.918-1.656-3.754-.764-7.508-1.082-11.199-.891-17.815.891-36.521 13.245-51.22 33.748-9.861 13.818-16.67 29.864-18.197 42.918-.318 2.801-.636 10.379 3.436 19.42 3.818 8.533 10.69 15.665 19.916 20.632 8.59 4.648 18.579 7.068 28.123 6.75 14.443-.446 25.45-6.941 32.131-12.354.191-.19.51-.127.7.064.191.191.127.51-.063.7-6.809 5.477-18.07 12.099-32.705 12.545-.636.127-1.209.127-1.781.127zM22.015 151.867c-.191 0-.382-.127-.445-.319-2.482-6.622-4.772-13.371-6.745-20.057l-.064-.128c-3.69-12.417-9.225-31.074-12.28-50.94-5.026-33.048-.827-56.417 12.408-69.343 3.69-3.63 8.462-6.75 12.98-8.66C33.468.127 38.685-.318 43.012 1.21c3.308 1.146 6.235 3.502 8.844 7.132.127.19.127.509-.127.636-.191.128-.51.128-.637-.127-2.481-3.439-5.217-5.667-8.335-6.75C34.04-.955 22.524 4.967 15.59 11.78 2.545 24.515-1.527 47.566 3.436 80.295c2.99 19.803 8.59 38.46 12.216 50.814l.064.127c1.972 6.686 4.263 13.372 6.744 19.994.064.255-.063.51-.254.637-.064-.064-.127 0-.191 0z" transform="translate(62.4 36) translate(0 12.098)"/>
                <path d="M176.565 412.365c-11.835 0-21.888-3.057-28.887-8.915-3.563-2.993-6.68-7.004-8.908-11.462-1.908-3.82-3.117-7.895-3.5-11.843-.317-3.439-.063-6.686.764-9.743 2.673-9.487 11.899-17.956 25.26-23.178 12.662-4.966 27.869-6.43 40.53-3.948 14.571 2.802 23.606 10.061 32.387 17.066 3.308 2.61 6.426 5.094 9.735 7.259 4.772-16.875 3.181-38.588-4.581-62.785-13.171 6.05-36.331 13.117-58.919 15.537-19.47 2.101-45.493 1.528-59.11-13.372-.89-1.019-1.781-2.037-2.544-3.12-8.845-12.417-6.681-28.081-5.663-35.658 1.336-9.806 5.09-19.74 10.562-27.954 6.426-9.679 14.952-16.683 24.75-20.185 4.455-1.592 9.1-2.547 13.808-2.738-.128-2.993 0-5.859.445-8.597.573-3.247 1.527-6.304 2.927-8.978 7.762-14.9 27.105-17.001 47.53-19.166 10.689-1.147 21.76-2.356 31.431-5.476-32.513-17.257-45.939-35.914-53.129-48.521-4.39-7.705-8.08-16.11-11.134-25.79-13.807 8.597-22.906 19.995-25.133 31.266-1.4 7.322.382 12.862 2.354 18.72 2.227 6.686 4.518 13.69 1.4 23.37-4.963 15.282-18.77 24.578-29.077 27.89-14.253 4.584-32.705 1.782-47.084-7.196-7.89-4.903-13.68-11.334-16.225-18.02-4.836-12.608-.255-31.52 12.47-52.023 9.036-14.582 21.57-28.973 36.204-41.517 3.436-2.993 7.063-5.858 10.69-8.596 3.372-2.547 6.808-4.903 10.244-7.132 9.226-6.05 18.833-11.143 28.44-15.091-2.162-2.483-4.771-4.012-7.889-4.712-7.89-1.783-15.27 2.802-23.033 7.705-.254.127-.509.063-.636-.128-.127-.19-.064-.51.127-.636 7.954-5.03 15.525-9.743 23.797-7.833 3.436.765 6.235 2.547 8.59 5.286 17.115-6.941 34.103-10.316 50.455-9.998 6.809.128 13.935.892 21.125 2.293 23.669 4.584 47.91 15.919 63.245 29.545.19.191.19.446.063.7-.19.192-.445.192-.7.064-15.206-13.499-39.32-24.77-62.8-29.354-7.125-1.401-14.188-2.165-20.933-2.292-16.16-.319-32.895 2.992-49.82 9.806 4.454 5.858 6.681 15.027 9.481 26.552 1.463 6.05 3.118 12.863 5.281 19.867 11.707-7.068 25.069-11.207 37.858-11.716 7.826-.318 15.27.764 22.015 3.184 6.68 2.42 22.906 9.806 29.968 26.807 0 .064.064.128.128.255 5.408 13.117 4.517 29.1-2.291 40.625-4.518 7.705-11.58 13.181-21.506 16.81 8.526 4.394 16.925 8.087 25.07 11.653 17.178 7.514 32.003 14.009 39.893 24.07 3.372 4.266 5.218 8.85 5.79 14.072.573 5.221-.318 10.634-2.608 16.046v.064c-4.836 11.334-15.335 21.522-24.115 29.164 19.915 27.699 26.978 74.246 6.172 93.03-6.3 5.73-18.452 11.716-29.46 12.162-5.79.255-11.07-1.082-11.134-1.082-4.072-1.02-7.954-2.738-12.09-5.286-1.781 5.859-4.39 11.144-7.698 15.601-10.244 13.945-30.414 24.579-51.41 27.126-3.119.255-6.109.446-8.972.446zm12.662-69.343c-9.29 0-18.961 1.719-27.487 5.094-13.107 5.094-22.079 13.308-24.688 22.541-.827 2.93-1.081 6.05-.763 9.424.382 3.82 1.527 7.768 3.372 11.462 2.163 4.393 5.154 8.214 8.653 11.143 8.463 7.132 21.697 9.997 37.095 8.15 20.679-2.483 40.594-12.99 50.71-26.743 3.31-4.458 5.854-9.743 7.636-15.601-3.436-2.229-6.681-4.776-10.053-7.514-8.654-6.94-17.625-14.072-31.941-16.874-4.008-.7-8.208-1.082-12.534-1.082zM244.9 368.11c4.136 2.61 8.017 4.33 12.09 5.349.063 0 5.217 1.273 10.88 1.019 10.752-.446 22.65-6.304 28.822-11.908 20.425-18.466 13.426-64.312-6.299-91.693-3.69 3.184-7.444 6.304-10.816 9.042-11.453 9.424-24.624 17.638-39.258 24.451 7.89 24.58 9.48 46.611 4.581 63.74zm-130.753-99.844s0 .064 0 0c-1.018 7.45-3.118 22.86 5.472 35.022.763 1.019 1.59 2.038 2.481 3.056 13.362 14.582 39.067 15.155 58.282 13.054 22.524-2.42 45.62-9.551 58.728-15.537-9.226-28.208-20.742-45.146-24.37-50.05-11.834 3.185-24.24 5.54-35.503-2.674-9.162-6.685-15.907-19.93-16.925-32.92-4.644.191-9.226 1.146-13.552 2.674-13.616 4.967-30.923 20.377-34.613 47.375zm101.612-14.709c3.881 5.349 15.207 22.223 24.242 49.922 14.507-6.75 27.614-14.9 38.94-24.26 3.372-2.739 7.126-5.922 10.816-9.106-5.408-7.387-11.898-14.9-22.46-19.676-15.716-7.195-31.05-2.738-45.875 1.528-1.845.51-3.754 1.083-5.663 1.592zm33.659-7.96c6.044 0 12.152 1.083 18.324 3.885 10.69 4.903 17.307 12.417 22.779 19.93 8.653-7.577 19.024-17.574 23.796-28.717v-.064c2.29-5.349 3.118-10.443 2.545-15.6-.572-5.031-2.354-9.488-5.599-13.564-7.699-9.806-22.46-16.3-39.512-23.75-8.4-3.694-17.052-7.514-25.896-12.1-9.926 3.376-21.38 4.586-32.514 5.795-20.17 2.165-39.194 4.203-46.766 18.657-1.336 2.547-2.29 5.477-2.8 8.66-.445 2.611-.572 5.476-.445 8.406 1.973-.064 4.009 0 5.79.19 21.443 2.357 34.55 19.804 46.13 35.277 1.972-.573 4.008-1.146 6.045-1.72 9.098-2.546 18.515-5.284 28.123-5.284zm-86.088-27.444c.955 12.736 7.572 25.662 16.543 32.22 10.817 7.896 22.842 5.731 34.295 2.611-11.389-15.282-24.369-32.347-45.238-34.64-1.718-.127-3.627-.254-5.6-.19zm1.91-164.856c-9.672 3.948-19.28 9.042-28.57 15.09-3.372 2.23-6.807 4.586-10.18 7.133-3.626 2.738-7.19 5.603-10.625 8.532-14.507 12.48-26.978 26.808-36.013 41.262-12.535 20.185-17.052 38.842-12.344 51.132 2.482 6.495 8.08 12.735 15.843 17.51 14.125 8.788 32.323 11.59 46.257 7.069 10.053-3.248 23.542-12.354 28.441-27.317 3.054-9.424.827-16.238-1.4-22.796-1.908-5.731-3.88-11.653-2.417-19.23 2.29-11.59 11.643-23.242 25.769-32.03-2.227-7.131-3.882-14.008-5.345-20.12-2.736-11.399-4.963-20.568-9.417-26.235zm15.97 46.929c3.054 9.678 6.68 18.147 11.134 25.788 15.08 26.235 37.731 40.307 53.574 48.585 10.18-3.502 17.307-8.978 21.824-16.683 6.681-11.27 7.508-26.935 2.227-39.797 0-.064-.064-.128-.064-.191C262.97 101.245 247 93.986 240.51 91.63c-6.617-2.42-13.934-3.439-21.633-3.184-12.79.573-26.087 4.712-37.667 11.78zM100.467 67.815c-2.163 0-4.327-.191-6.554-.51-4.835-.7-16.097-2.356-23.605-11.143-3.881-4.585-4.772-8.66-5.981-14.327-.636-2.802-1.273-6.05-2.482-9.87-.445-1.4-.954-2.929-1.527-4.457-.063-.255 0-.51.255-.637.254-.127.509 0 .636.191 0 0 .064.064.064.128.572 1.528 1.081 3.056 1.527 4.457 1.209 3.884 1.909 7.132 2.545 9.933 1.209 5.54 2.036 9.488 5.79 13.882 7.317 8.532 18.324 10.124 23.033 10.825 5.535.827 10.816.573 16.161-.7 1.464-.32 2.99-.765 4.39-1.274l.255-.064.19.446.128.445-.254.064c-1.464.51-2.991.955-4.518 1.337-3.372.828-6.68 1.274-10.053 1.274z" transform="translate(62.4 36) translate(0 12.098)"/>
            </g>
            <g fill="#000">
                <path d="M39.258 439.682c-.255 0-.446-.191-.446-.382-2.1-15.092-4.135-30.246-6.044-45.02-6.172-46.992-11.835-94.494-16.861-141.232-1.082-9.87-2.1-19.867-3.118-29.673-3.118-30.055-5.98-60.556-8.653-90.547-.255-3.63-.51-7.196-.764-10.761 0-.255.191-.51.446-.51.254 0 .509.191.509.446.254 3.502.509 7.132.763 10.697 2.672 30.055 5.536 60.492 8.653 90.547 1.018 9.807 2.036 19.804 3.118 29.673 5.027 46.738 10.69 94.24 16.861 141.233 1.591 12.226 3.245 24.707 4.963 37.25v-.445c0-.191-.318-19.485-.7-38.588-.318-15.982-3.626-105.001-9.798-264.445-.382-6.113-.764-12.035-1.082-16.492l.445-.064h.51c.318 4.457.7 10.38 1.081 16.492 6.172 159.508 9.48 248.463 9.799 264.51.381 19.102.7 38.396.7 38.587v.127c.063 2.738.063 5.477.127 8.15-.064.256-.255.447-.51.447zM2.354 101.436c-.254 0-.445-.191-.445-.446-.318-5.604-.573-10.188-.764-14.455C-.127 59.345-.19 38.27 1.082 23.942 2.1 11.844 4.008 4.457 6.872 1.465 7.953.382 8.972-.064 10.053.318c1.336.446 5.408 1.72 9.99 31.074 2.417 15.537 4.644 37.187 6.744 64.25 0 .254-.19.509-.445.509s-.51-.192-.51-.446c-2.1-27.062-4.39-48.649-6.744-64.185-3.69-23.815-7.126-29.61-9.29-30.31-.7-.191-1.463.064-2.226.891C4.899 4.903 3.054 12.29 2.036 24.006.827 38.269.827 59.282 2.1 86.472c.19 4.266.445 8.85.763 14.454 0 .255-.19.51-.509.51.064 0 .064 0 0 0z" transform="translate(62.4 36) translate(298.41)"/>
                <path d="M13.68 64.695H9.926c-.255 0-.446-.191-.446-.382C8.08 55.97 7.253 47.438 7 38.97c-.127-5.731-.064-12.162.318-17.257.573-9.233 1.59-9.296 2.1-9.296.509 0 1.527-.064 3.054 8.914.827 5.094 1.59 11.526 1.972 17.257.573 8.532.51 17.192-.254 25.66-.064.256-.255.447-.51.447zm-3.372-.955h2.926c.7-8.278.764-16.747.191-25.089-.827-12.098-2.863-23.815-4.008-25.215-.955 1.464-1.782 13.053-1.464 25.47.191 8.341.955 16.683 2.355 24.834zM27.232 107.803h-.509c-.063-.764-.127-1.592-.19-2.42l-.064-1.273c0-.255.19-.51.445-.51s.51.192.51.446l.063 1.274c.063.828.127 1.592.19 2.42l-.445.063z" transform="translate(62.4 36) translate(298.41)"/>
            </g>
        </g>
    </g>
</svg>
